<svg width="224" height="62" viewBox="0 0 224 62" fill="none" xmlns="http://www.w3.org/2000/svg">
<path d="M9.90751 48.3645H0.548624V13.7315H9.90751V48.3645ZM0 4.76923C0 3.38221 0.462565 2.24058 1.3877 1.34435C2.33434 0.448116 3.61446 0 5.22807 0C6.82015 0 8.08952 0.448116 9.03616 1.34435C9.98281 2.24058 10.4561 3.38221 10.4561 4.76923C10.4561 6.17759 9.97205 7.32989 9.00389 8.22612C8.05724 9.12235 6.79864 9.57047 5.22807 9.57047C3.65749 9.57047 2.38813 9.12235 1.41997 8.22612C0.473323 7.32989 0 6.17759 0 4.76923Z" fill="#EBA417"/>
<path d="M16.2651 30.7919C16.2651 25.4786 17.5345 21.2001 20.0732 17.9566C22.6334 14.7131 26.0758 13.0914 30.4002 13.0914C34.2298 13.0914 37.2096 14.393 39.3396 16.9964L39.7268 13.7315H48.1821V47.2122C48.1821 50.2423 47.4829 52.8776 46.0844 55.1182C44.7075 57.3588 42.7604 59.0659 40.2432 60.2395C37.726 61.4132 34.7785 62 31.4007 62C28.8404 62 26.3447 61.4879 23.9136 60.4636C21.4824 59.4607 19.6429 58.159 18.395 56.5586L22.5259 50.9251C24.8494 53.5071 27.6679 54.7981 30.9811 54.7981C33.4553 54.7981 35.3809 54.1366 36.7578 52.8136C38.1348 51.512 38.8232 49.6555 38.8232 47.2442V45.3877C36.6718 47.799 33.8426 49.0046 30.3357 49.0046C26.1403 49.0046 22.741 47.3829 20.1377 44.1394C17.556 40.8745 16.2651 36.5534 16.2651 31.176V30.7919ZM25.5917 31.4641C25.5917 34.6009 26.2264 37.0656 27.4958 38.858C28.7651 40.6292 30.5078 41.5147 32.7238 41.5147C35.5638 41.5147 37.5969 40.4584 38.8232 38.3459V23.7821C37.5754 21.6696 35.5638 20.6133 32.7884 20.6133C30.5508 20.6133 28.7866 21.5202 27.4958 23.334C26.2264 25.1478 25.5917 27.8579 25.5917 31.4641Z" fill="#EBA417"/>
<path d="M55.8628 43.8193C55.8628 42.3469 56.3577 41.152 57.3474 40.2344C58.3585 39.3168 59.6172 38.858 61.1232 38.858C62.6507 38.858 63.9093 39.3168 64.899 40.2344C65.9102 41.152 66.4158 42.3469 66.4158 43.8193C66.4158 45.2703 65.921 46.4547 64.9313 47.3722C63.9416 48.2685 62.6722 48.7166 61.1232 48.7166C59.5956 48.7166 58.337 48.2685 57.3474 47.3722C56.3577 46.4547 55.8628 45.2703 55.8628 43.8193Z" fill="#EBA417"/>
<path d="M83.1972 13.7315L83.4877 17.7326C85.9834 14.6384 89.3289 13.0914 93.5243 13.0914C97.2248 13.0914 99.9787 14.169 101.786 16.3242C103.593 18.4794 104.518 21.7016 104.561 25.9907V48.3645H95.2347V26.2148C95.2347 24.2516 94.8044 22.8326 93.9438 21.9577C93.0832 21.0614 91.6525 20.6133 89.6516 20.6133C87.0268 20.6133 85.0583 21.7229 83.7459 23.9422V48.3645H74.4192V13.7315H83.1972Z" fill="#EBA417"/>
<path d="M127.733 49.0046C122.612 49.0046 118.438 47.4469 115.211 44.3314C112.005 41.216 110.403 37.0656 110.403 31.8802V30.984C110.403 27.5058 111.08 24.401 112.436 21.6696C113.791 18.9169 115.706 16.8043 118.18 15.332C120.676 13.8382 123.516 13.0914 126.7 13.0914C131.476 13.0914 135.23 14.5851 137.963 17.5725C140.717 20.56 142.094 24.7957 142.094 30.2798V34.0568H119.858C120.159 36.3187 121.063 38.1325 122.569 39.4982C124.097 40.8639 126.022 41.5467 128.346 41.5467C131.939 41.5467 134.746 40.2557 136.769 37.6737L141.351 42.763C139.953 44.7262 138.06 46.2626 135.672 47.3722C133.283 48.4605 130.637 49.0046 127.733 49.0046ZM126.668 20.5813C124.817 20.5813 123.311 21.2001 122.15 22.4378C121.009 23.6754 120.278 25.4466 119.955 27.7512H132.928V27.015C132.885 24.9664 132.326 23.3874 131.25 22.2777C130.175 21.1468 128.647 20.5813 126.668 20.5813Z" fill="#EBA417"/>
<path d="M177.786 35.7852L182.369 13.7315H191.373L182.466 48.3645H174.656L168.04 26.5669L161.425 48.3645H153.647L144.74 13.7315H153.744L158.294 35.7532L164.684 13.7315H171.429L177.786 35.7852Z" fill="#EBA417"/>
<path d="M214.932 38.794C214.932 37.6631 214.361 36.7775 213.221 36.1373C212.102 35.4758 210.295 34.889 207.799 34.3769C199.495 32.6484 195.342 29.1489 195.342 23.8782C195.342 20.8054 196.623 18.2447 199.183 16.1962C201.765 14.1263 205.132 13.0914 209.284 13.0914C213.716 13.0914 217.255 14.1263 219.901 16.1962C222.569 18.266 223.903 20.9547 223.903 24.2623H214.577C214.577 22.9393 214.146 21.851 213.286 20.9974C212.425 20.1225 211.08 19.6851 209.252 19.6851C207.681 19.6851 206.466 20.0372 205.605 20.7414C204.744 21.4455 204.314 22.3418 204.314 23.43C204.314 24.4543 204.798 25.2865 205.766 25.9267C206.756 26.5455 208.413 27.0897 210.736 27.5591C213.06 28.0072 215.018 28.5194 216.61 29.0955C221.537 30.888 224 33.9928 224 38.4099C224 41.5681 222.634 44.1287 219.901 46.0919C217.169 48.0337 213.641 49.0046 209.316 49.0046C206.39 49.0046 203.787 48.4925 201.506 47.4683C199.247 46.4226 197.472 45.0036 196.182 43.2112C194.891 41.3974 194.245 39.4448 194.245 37.3536H203.088C203.174 38.9967 203.787 40.2557 204.927 41.1306C206.068 42.0055 207.595 42.443 209.51 42.443C211.296 42.443 212.64 42.1122 213.544 41.4507C214.469 40.7679 214.932 39.8823 214.932 38.794Z" fill="#EBA417"/>
</svg>
